<mxfile modified="2024-01-03T06:23:06.462Z" host="app.diagrams.net" agent="Mozilla/5.0 (Windows NT 10.0; Win64; x64) AppleWebKit/537.36 (KHTML, like Gecko) Chrome/121.0.0.0 Safari/537.36 Edg/121.0.0.0" etag="68WRj8ZNSJQThn4_Ex5d" version="22.1.16" type="github">
  <diagram id="Ht1M8jgEwFfnCIfOTk4-" name="Page-1">
    <mxGraphModel dx="2595" dy="785" grid="1" gridSize="10" guides="1" tooltips="1" connect="1" arrows="1" fold="1" page="1" pageScale="1" pageWidth="1169" pageHeight="827" math="0" shadow="0">
      <root>
        <mxCell id="0" />
        <mxCell id="1" parent="0" />
        <mxCell id="-YT3ytnySM4rT-WdRFqW-1" value="" style="rounded=0;whiteSpace=wrap;html=1;dashed=1;dashPattern=12 12;fontSize=15;fontStyle=0" vertex="1" parent="1">
          <mxGeometry x="-180" y="180" width="1200" height="610" as="geometry" />
        </mxCell>
        <mxCell id="-YT3ytnySM4rT-WdRFqW-2" value="" style="rounded=0;whiteSpace=wrap;html=1;dashed=1;fontSize=15;fontStyle=0;strokeColor=#808080;fontColor=#808080;" vertex="1" parent="1">
          <mxGeometry x="420" y="330" width="600" height="430" as="geometry" />
        </mxCell>
        <mxCell id="-YT3ytnySM4rT-WdRFqW-3" value="terminated" style="rounded=0;whiteSpace=wrap;html=1;fontSize=15;fontStyle=0" vertex="1" parent="1">
          <mxGeometry x="230" y="700" width="120" height="60" as="geometry" />
        </mxCell>
        <mxCell id="-YT3ytnySM4rT-WdRFqW-4" value="shutting-down" style="rounded=0;whiteSpace=wrap;html=1;fontSize=15;fontStyle=0" vertex="1" parent="1">
          <mxGeometry x="230" y="580" width="120" height="60" as="geometry" />
        </mxCell>
        <mxCell id="-YT3ytnySM4rT-WdRFqW-5" value="pending" style="rounded=0;whiteSpace=wrap;html=1;fontSize=15;fontStyle=0" vertex="1" parent="1">
          <mxGeometry x="230" y="340" width="120" height="60" as="geometry" />
        </mxCell>
        <mxCell id="-YT3ytnySM4rT-WdRFqW-6" value="rebooting" style="rounded=0;whiteSpace=wrap;html=1;fontSize=15;fontStyle=0" vertex="1" parent="1">
          <mxGeometry x="-60" y="460" width="120" height="60" as="geometry" />
        </mxCell>
        <mxCell id="-YT3ytnySM4rT-WdRFqW-7" value="running" style="rounded=0;whiteSpace=wrap;html=1;fontSize=15;fontStyle=0" vertex="1" parent="1">
          <mxGeometry x="230" y="460" width="120" height="60" as="geometry" />
        </mxCell>
        <mxCell id="-YT3ytnySM4rT-WdRFqW-8" value="stoping" style="rounded=0;whiteSpace=wrap;html=1;fontSize=15;fontStyle=0" vertex="1" parent="1">
          <mxGeometry x="610" y="460" width="120" height="60" as="geometry" />
        </mxCell>
        <mxCell id="-YT3ytnySM4rT-WdRFqW-9" value="stopped" style="rounded=0;whiteSpace=wrap;html=1;fontSize=15;fontStyle=0" vertex="1" parent="1">
          <mxGeometry x="830" y="460" width="120" height="60" as="geometry" />
        </mxCell>
        <mxCell id="-YT3ytnySM4rT-WdRFqW-11" value="" style="outlineConnect=0;dashed=0;verticalLabelPosition=bottom;verticalAlign=top;align=center;html=1;shape=mxgraph.aws3.ami;fillColor=#F58534;gradientColor=none;fontSize=15;fontStyle=0" vertex="1" parent="1">
          <mxGeometry x="260" y="210" width="60" height="63" as="geometry" />
        </mxCell>
        <mxCell id="-YT3ytnySM4rT-WdRFqW-12" value="" style="edgeStyle=orthogonalEdgeStyle;html=1;endArrow=block;elbow=vertical;startArrow=none;endFill=1;strokeColor=#545B64;rounded=0;exitX=1;exitY=0.5;exitDx=0;exitDy=0;entryX=0;entryY=0.5;entryDx=0;entryDy=0;fontSize=15;fontStyle=0" edge="1" parent="1" source="-YT3ytnySM4rT-WdRFqW-7" target="-YT3ytnySM4rT-WdRFqW-8">
          <mxGeometry width="100" relative="1" as="geometry">
            <mxPoint x="450" y="489.5" as="sourcePoint" />
            <mxPoint x="550" y="489.5" as="targetPoint" />
          </mxGeometry>
        </mxCell>
        <mxCell id="-YT3ytnySM4rT-WdRFqW-13" value="" style="edgeStyle=orthogonalEdgeStyle;html=1;endArrow=block;elbow=vertical;startArrow=none;endFill=1;strokeColor=#545B64;rounded=0;exitX=1;exitY=0.5;exitDx=0;exitDy=0;entryX=0;entryY=0.5;entryDx=0;entryDy=0;fontSize=15;fontStyle=0" edge="1" parent="1" source="-YT3ytnySM4rT-WdRFqW-8" target="-YT3ytnySM4rT-WdRFqW-9">
          <mxGeometry width="100" relative="1" as="geometry">
            <mxPoint x="740" y="489.5" as="sourcePoint" />
            <mxPoint x="840" y="489.5" as="targetPoint" />
          </mxGeometry>
        </mxCell>
        <mxCell id="-YT3ytnySM4rT-WdRFqW-14" value="" style="edgeStyle=orthogonalEdgeStyle;html=1;endArrow=block;elbow=vertical;startArrow=none;endFill=1;strokeColor=#545B64;rounded=0;exitX=1;exitY=0.25;exitDx=0;exitDy=0;entryX=0;entryY=0.25;entryDx=0;entryDy=0;fontSize=15;fontStyle=0" edge="1" parent="1" source="-YT3ytnySM4rT-WdRFqW-6" target="-YT3ytnySM4rT-WdRFqW-7">
          <mxGeometry width="100" relative="1" as="geometry">
            <mxPoint x="100" y="480" as="sourcePoint" />
            <mxPoint x="200" y="480" as="targetPoint" />
          </mxGeometry>
        </mxCell>
        <mxCell id="-YT3ytnySM4rT-WdRFqW-16" value="" style="edgeStyle=orthogonalEdgeStyle;html=1;endArrow=none;elbow=vertical;startArrow=block;startFill=1;strokeColor=#545B64;rounded=0;exitX=1;exitY=0.75;exitDx=0;exitDy=0;entryX=0;entryY=0.75;entryDx=0;entryDy=0;fontSize=15;fontStyle=0" edge="1" parent="1" source="-YT3ytnySM4rT-WdRFqW-6" target="-YT3ytnySM4rT-WdRFqW-7">
          <mxGeometry width="100" relative="1" as="geometry">
            <mxPoint x="100" y="500" as="sourcePoint" />
            <mxPoint x="200" y="500" as="targetPoint" />
          </mxGeometry>
        </mxCell>
        <mxCell id="-YT3ytnySM4rT-WdRFqW-17" value="2" style="ellipse;whiteSpace=wrap;html=1;aspect=fixed;fillColor=#6d8764;fontColor=#ffffff;strokeColor=#3A5431;fontSize=21;fontStyle=0" vertex="1" parent="1">
          <mxGeometry x="460" y="430" width="50" height="50" as="geometry" />
        </mxCell>
        <mxCell id="-YT3ytnySM4rT-WdRFqW-18" value="3" style="ellipse;whiteSpace=wrap;html=1;aspect=fixed;fillColor=#6d8764;fontColor=#ffffff;strokeColor=#3A5431;fontSize=21;fontStyle=0" vertex="1" parent="1">
          <mxGeometry x="100" y="530" width="50" height="50" as="geometry" />
        </mxCell>
        <mxCell id="-YT3ytnySM4rT-WdRFqW-19" value="1" style="ellipse;whiteSpace=wrap;html=1;aspect=fixed;fillColor=#6d8764;fontColor=#ffffff;strokeColor=#3A5431;fontSize=21;fontStyle=0" vertex="1" parent="1">
          <mxGeometry x="100" y="410" width="50" height="50" as="geometry" />
        </mxCell>
        <mxCell id="-YT3ytnySM4rT-WdRFqW-20" value="Reboot" style="text;strokeColor=none;align=center;fillColor=none;html=1;verticalAlign=middle;whiteSpace=wrap;rounded=0;fontSize=16;fontStyle=1" vertex="1" parent="1">
          <mxGeometry x="160" y="420" width="60" height="30" as="geometry" />
        </mxCell>
        <mxCell id="-YT3ytnySM4rT-WdRFqW-21" value="Stop" style="text;strokeColor=none;align=center;fillColor=none;html=1;verticalAlign=middle;whiteSpace=wrap;rounded=0;fontSize=16;fontStyle=1" vertex="1" parent="1">
          <mxGeometry x="510" y="440" width="50" height="30" as="geometry" />
        </mxCell>
        <mxCell id="-YT3ytnySM4rT-WdRFqW-22" value="Terminate" style="text;strokeColor=none;align=center;fillColor=none;html=1;verticalAlign=middle;whiteSpace=wrap;rounded=0;fontSize=16;fontStyle=1" vertex="1" parent="1">
          <mxGeometry x="160" y="540" width="80" height="30" as="geometry" />
        </mxCell>
        <mxCell id="-YT3ytnySM4rT-WdRFqW-23" value="EBS-backed instance only" style="text;strokeColor=none;align=center;fillColor=none;html=1;verticalAlign=middle;whiteSpace=wrap;rounded=0;fontSize=15;fontStyle=1;fontColor=#999999;" vertex="1" parent="1">
          <mxGeometry x="820" y="290" width="190" height="30" as="geometry" />
        </mxCell>
        <mxCell id="-YT3ytnySM4rT-WdRFqW-24" value="AMI" style="text;strokeColor=none;align=center;fillColor=none;html=1;verticalAlign=middle;whiteSpace=wrap;rounded=0;fontSize=16;fontStyle=1" vertex="1" parent="1">
          <mxGeometry x="320" y="226.5" width="40" height="30" as="geometry" />
        </mxCell>
        <mxCell id="-YT3ytnySM4rT-WdRFqW-25" value="" style="edgeStyle=orthogonalEdgeStyle;html=1;endArrow=block;elbow=vertical;startArrow=none;endFill=1;strokeColor=#545B64;rounded=0;exitX=0.5;exitY=1;exitDx=0;exitDy=0;exitPerimeter=0;fontSize=15;fontStyle=0" edge="1" parent="1" source="-YT3ytnySM4rT-WdRFqW-11" target="-YT3ytnySM4rT-WdRFqW-5">
          <mxGeometry width="100" relative="1" as="geometry">
            <mxPoint x="400" y="330" as="sourcePoint" />
            <mxPoint x="500" y="330" as="targetPoint" />
          </mxGeometry>
        </mxCell>
        <mxCell id="-YT3ytnySM4rT-WdRFqW-26" value="" style="edgeStyle=orthogonalEdgeStyle;html=1;endArrow=block;elbow=vertical;startArrow=none;endFill=1;strokeColor=#545B64;rounded=0;entryX=0.5;entryY=0;entryDx=0;entryDy=0;fontSize=15;fontStyle=0" edge="1" parent="1" source="-YT3ytnySM4rT-WdRFqW-5" target="-YT3ytnySM4rT-WdRFqW-7">
          <mxGeometry width="100" relative="1" as="geometry">
            <mxPoint x="289.5" y="400" as="sourcePoint" />
            <mxPoint x="289.5" y="467" as="targetPoint" />
          </mxGeometry>
        </mxCell>
        <mxCell id="-YT3ytnySM4rT-WdRFqW-27" value="" style="edgeStyle=orthogonalEdgeStyle;html=1;endArrow=block;elbow=vertical;startArrow=none;endFill=1;strokeColor=#545B64;rounded=0;fontSize=15;fontStyle=0" edge="1" parent="1" source="-YT3ytnySM4rT-WdRFqW-7" target="-YT3ytnySM4rT-WdRFqW-4">
          <mxGeometry width="100" relative="1" as="geometry">
            <mxPoint x="289.5" y="520" as="sourcePoint" />
            <mxPoint x="289.5" y="587" as="targetPoint" />
          </mxGeometry>
        </mxCell>
        <mxCell id="-YT3ytnySM4rT-WdRFqW-28" value="" style="edgeStyle=orthogonalEdgeStyle;html=1;endArrow=block;elbow=vertical;startArrow=none;endFill=1;strokeColor=#545B64;rounded=0;fontSize=15;fontStyle=0" edge="1" parent="1" source="-YT3ytnySM4rT-WdRFqW-4" target="-YT3ytnySM4rT-WdRFqW-3">
          <mxGeometry width="100" relative="1" as="geometry">
            <mxPoint x="289.5" y="640" as="sourcePoint" />
            <mxPoint x="289.5" y="707" as="targetPoint" />
          </mxGeometry>
        </mxCell>
        <mxCell id="-YT3ytnySM4rT-WdRFqW-29" value="Stop - Hibernate" style="text;strokeColor=none;align=center;fillColor=none;html=1;verticalAlign=middle;whiteSpace=wrap;rounded=0;fontSize=16;fontStyle=1" vertex="1" parent="1">
          <mxGeometry x="450" y="500" width="130" height="30" as="geometry" />
        </mxCell>
        <mxCell id="-YT3ytnySM4rT-WdRFqW-30" value="" style="edgeStyle=orthogonalEdgeStyle;html=1;endArrow=none;elbow=vertical;startArrow=block;startFill=1;strokeColor=#545B64;rounded=0;entryX=0.5;entryY=0;entryDx=0;entryDy=0;fontSize=15;fontStyle=0" edge="1" parent="1" source="-YT3ytnySM4rT-WdRFqW-5" target="-YT3ytnySM4rT-WdRFqW-9">
          <mxGeometry width="100" relative="1" as="geometry">
            <mxPoint x="350" y="369.5" as="sourcePoint" />
            <mxPoint x="450" y="369.5" as="targetPoint" />
          </mxGeometry>
        </mxCell>
        <mxCell id="-YT3ytnySM4rT-WdRFqW-31" value="" style="edgeStyle=orthogonalEdgeStyle;html=1;endArrow=none;elbow=vertical;startArrow=block;startFill=1;strokeColor=#545B64;rounded=0;entryX=0.5;entryY=1;entryDx=0;entryDy=0;exitX=1;exitY=0.5;exitDx=0;exitDy=0;fontSize=15;fontStyle=0" edge="1" parent="1" source="-YT3ytnySM4rT-WdRFqW-3" target="-YT3ytnySM4rT-WdRFqW-9">
          <mxGeometry width="100" relative="1" as="geometry">
            <mxPoint x="520" y="600" as="sourcePoint" />
            <mxPoint x="620" y="600" as="targetPoint" />
          </mxGeometry>
        </mxCell>
        <mxCell id="-YT3ytnySM4rT-WdRFqW-32" value="Launch" style="text;strokeColor=none;align=center;fillColor=none;html=1;verticalAlign=middle;whiteSpace=wrap;rounded=0;fontSize=16;fontStyle=1" vertex="1" parent="1">
          <mxGeometry x="210" y="290" width="60" height="30" as="geometry" />
        </mxCell>
        <mxCell id="-YT3ytnySM4rT-WdRFqW-33" value="Amazon EC2 Instance" style="text;strokeColor=none;align=center;fillColor=none;html=1;verticalAlign=middle;whiteSpace=wrap;rounded=0;fontSize=15;fontStyle=0" vertex="1" parent="1">
          <mxGeometry x="-180" y="140" width="160" height="30" as="geometry" />
        </mxCell>
        <mxCell id="-YT3ytnySM4rT-WdRFqW-34" value="Start" style="text;strokeColor=none;align=center;fillColor=none;html=1;verticalAlign=middle;whiteSpace=wrap;rounded=0;fontSize=16;fontStyle=1" vertex="1" parent="1">
          <mxGeometry x="625" y="380" width="90" height="30" as="geometry" />
        </mxCell>
        <mxCell id="-YT3ytnySM4rT-WdRFqW-35" value="Terminate" style="text;strokeColor=none;align=center;fillColor=none;html=1;verticalAlign=middle;whiteSpace=wrap;rounded=0;fontSize=16;fontStyle=1" vertex="1" parent="1">
          <mxGeometry x="625" y="690" width="90" height="30" as="geometry" />
        </mxCell>
        <mxCell id="-YT3ytnySM4rT-WdRFqW-36" style="edgeStyle=orthogonalEdgeStyle;rounded=0;orthogonalLoop=1;jettySize=auto;html=1;exitX=0.5;exitY=1;exitDx=0;exitDy=0;fontSize=15;fontStyle=0" edge="1" parent="1" source="-YT3ytnySM4rT-WdRFqW-34" target="-YT3ytnySM4rT-WdRFqW-34">
          <mxGeometry relative="1" as="geometry" />
        </mxCell>
      </root>
    </mxGraphModel>
  </diagram>
</mxfile>
